<svg id="visual" viewBox="0 0 900 600" width="900" height="600" xmlns="http://www.w3.org/2000/svg" xmlns:xlink="http://www.w3.org/1999/xlink" version="1.1"><rect x="0" y="0" width="900" height="600" fill="#3082ab"></rect><path d="M0 51L10 59.3C20 67.7 40 84.3 60 106C80 127.7 100 154.3 120 168.3C140 182.3 160 183.7 180 174.2C200 164.7 220 144.3 240 143C260 141.7 280 159.3 300 146.2C320 133 340 89 360 71C380 53 400 61 420 75.7C440 90.3 460 111.7 480 114.3C500 117 520 101 540 101.2C560 101.3 580 117.7 600 135.5C620 153.3 640 172.7 660 177.5C680 182.3 700 172.7 720 152.8C740 133 760 103 780 95.2C800 87.3 820 101.7 840 104C860 106.3 880 96.7 890 91.8L900 87L900 0L890 0C880 0 860 0 840 0C820 0 800 0 780 0C760 0 740 0 720 0C700 0 680 0 660 0C640 0 620 0 600 0C580 0 560 0 540 0C520 0 500 0 480 0C460 0 440 0 420 0C400 0 380 0 360 0C340 0 320 0 300 0C280 0 260 0 240 0C220 0 200 0 180 0C160 0 140 0 120 0C100 0 80 0 60 0C40 0 20 0 10 0L0 0Z" fill="#402bd7" stroke-linecap="round" stroke-linejoin="miter"></path></svg>