<svg id="visual" viewBox="0 0 900 450" width="900" height="450" xmlns="http://www.w3.org/2000/svg" xmlns:xlink="http://www.w3.org/1999/xlink" version="1.1"><rect x="0" y="0" width="900" height="450" fill="#9984e9"></rect><defs><linearGradient id="grad1_0" x1="50%" y1="0%" x2="100%" y2="100%"><stop offset="10%" stop-color="#6600ff" stop-opacity="1"></stop><stop offset="90%" stop-color="#6600ff" stop-opacity="1"></stop></linearGradient></defs><defs><linearGradient id="grad1_1" x1="50%" y1="0%" x2="100%" y2="100%"><stop offset="10%" stop-color="#6600ff" stop-opacity="1"></stop><stop offset="90%" stop-color="#7033fd" stop-opacity="1"></stop></linearGradient></defs><defs><linearGradient id="grad1_2" x1="50%" y1="0%" x2="100%" y2="100%"><stop offset="10%" stop-color="#7a4cf9" stop-opacity="1"></stop><stop offset="90%" stop-color="#7033fd" stop-opacity="1"></stop></linearGradient></defs><defs><linearGradient id="grad1_3" x1="50%" y1="0%" x2="100%" y2="100%"><stop offset="10%" stop-color="#7a4cf9" stop-opacity="1"></stop><stop offset="90%" stop-color="#8460f5" stop-opacity="1"></stop></linearGradient></defs><defs><linearGradient id="grad1_4" x1="50%" y1="0%" x2="100%" y2="100%"><stop offset="10%" stop-color="#8f73ef" stop-opacity="1"></stop><stop offset="90%" stop-color="#8460f5" stop-opacity="1"></stop></linearGradient></defs><defs><linearGradient id="grad1_5" x1="50%" y1="0%" x2="100%" y2="100%"><stop offset="10%" stop-color="#8f73ef" stop-opacity="1"></stop><stop offset="90%" stop-color="#9984e9" stop-opacity="1"></stop></linearGradient></defs><defs><linearGradient id="grad2_0" x1="0%" y1="0%" x2="50%" y2="100%"><stop offset="10%" stop-color="#6600ff" stop-opacity="1"></stop><stop offset="90%" stop-color="#6600ff" stop-opacity="1"></stop></linearGradient></defs><defs><linearGradient id="grad2_1" x1="0%" y1="0%" x2="50%" y2="100%"><stop offset="10%" stop-color="#7033fd" stop-opacity="1"></stop><stop offset="90%" stop-color="#6600ff" stop-opacity="1"></stop></linearGradient></defs><defs><linearGradient id="grad2_2" x1="0%" y1="0%" x2="50%" y2="100%"><stop offset="10%" stop-color="#7033fd" stop-opacity="1"></stop><stop offset="90%" stop-color="#7a4cf9" stop-opacity="1"></stop></linearGradient></defs><defs><linearGradient id="grad2_3" x1="0%" y1="0%" x2="50%" y2="100%"><stop offset="10%" stop-color="#8460f5" stop-opacity="1"></stop><stop offset="90%" stop-color="#7a4cf9" stop-opacity="1"></stop></linearGradient></defs><defs><linearGradient id="grad2_4" x1="0%" y1="0%" x2="50%" y2="100%"><stop offset="10%" stop-color="#8460f5" stop-opacity="1"></stop><stop offset="90%" stop-color="#8f73ef" stop-opacity="1"></stop></linearGradient></defs><defs><linearGradient id="grad2_5" x1="0%" y1="0%" x2="50%" y2="100%"><stop offset="10%" stop-color="#9984e9" stop-opacity="1"></stop><stop offset="90%" stop-color="#8f73ef" stop-opacity="1"></stop></linearGradient></defs><g transform="translate(900, 0)"><path d="M0 370C-31.2 379.6 -62.5 389.2 -85.1 372.9C-107.7 356.7 -121.7 314.6 -141 292.8C-160.3 271.1 -184.8 269.6 -207.6 260.3C-230.4 251.1 -251.5 234 -268.2 213.9C-284.8 193.7 -297 170.6 -305.4 147.1C-313.8 123.5 -318.4 99.6 -328.6 75C-338.7 50.4 -354.3 25.2 -370 0L0 0Z" fill="#947bec"></path><path d="M0 308.3C-26 316.3 -52.1 324.3 -70.9 310.8C-89.8 297.2 -101.5 262.1 -117.5 244C-133.6 225.9 -154 224.7 -173 217C-192 209.2 -209.6 195 -223.5 178.2C-237.3 161.5 -247.5 142.2 -254.5 122.6C-261.5 103 -265.4 83 -273.8 62.5C-282.2 42 -295.3 21 -308.3 0L0 0Z" fill="#896af2"></path><path d="M0 246.7C-20.8 253.1 -41.7 259.4 -56.7 248.6C-71.8 237.8 -81.2 209.7 -94 195.2C-106.9 180.7 -123.2 179.7 -138.4 173.6C-153.6 167.4 -167.7 156 -178.8 142.6C-189.9 129.2 -198 113.8 -203.6 98.1C-209.2 82.4 -212.3 66.4 -219 50C-225.8 33.6 -236.2 16.8 -246.7 0L0 0Z" fill="#7f56f7"></path><path d="M0 185C-15.6 189.8 -31.2 194.6 -42.6 186.5C-53.9 178.3 -60.9 157.3 -70.5 146.4C-80.1 135.5 -92.4 134.8 -103.8 130.2C-115.2 125.5 -125.8 117 -134.1 106.9C-142.4 96.9 -148.5 85.3 -152.7 73.5C-156.9 61.8 -159.2 49.8 -164.3 37.5C-169.3 25.2 -177.2 12.6 -185 0L0 0Z" fill="#7540fb"></path><path d="M0 123.3C-10.4 126.5 -20.8 129.7 -28.4 124.3C-35.9 118.9 -40.6 104.9 -47 97.6C-53.4 90.4 -61.6 89.9 -69.2 86.8C-76.8 83.7 -83.8 78 -89.4 71.3C-94.9 64.6 -99 56.9 -101.8 49C-104.6 41.2 -106.1 33.2 -109.5 25C-112.9 16.8 -118.1 8.4 -123.3 0L0 0Z" fill="#6b21fe"></path><path d="M0 61.7C-5.2 63.3 -10.4 64.9 -14.2 62.2C-18 59.4 -20.3 52.4 -23.5 48.8C-26.7 45.2 -30.8 44.9 -34.6 43.4C-38.4 41.8 -41.9 39 -44.7 35.6C-47.5 32.3 -49.5 28.4 -50.9 24.5C-52.3 20.6 -53.1 16.6 -54.8 12.5C-56.4 8.4 -59.1 4.2 -61.7 0L0 0Z" fill="#6600ff"></path></g><g transform="translate(0, 450)"><path d="M0 -348C29 -359.5 58 -371.1 83.7 -366.6C109.3 -362.1 131.5 -341.6 159.2 -330.7C186.9 -319.7 220.1 -318.3 238.5 -299.1C256.8 -279.8 260.4 -242.9 272.1 -217C283.8 -191.1 303.6 -176.2 324.3 -156.2C345.1 -136.2 366.6 -111 368.5 -84.1C370.4 -57.2 352.7 -28.6 335 0L0 0Z" fill="#947bec"></path><path d="M0 -290C24.2 -299.6 48.4 -309.2 69.7 -305.5C91.1 -301.7 109.6 -284.7 132.7 -275.5C155.8 -266.4 183.4 -265.2 198.7 -249.2C214 -233.2 217 -202.4 226.7 -180.8C236.5 -159.2 253 -146.8 270.3 -130.2C287.5 -113.5 305.5 -92.5 307.1 -70.1C308.7 -47.7 293.9 -23.8 279.2 0L0 0Z" fill="#896af2"></path><path d="M0 -232C19.3 -239.7 38.7 -247.4 55.8 -244.4C72.9 -241.4 87.7 -227.7 106.2 -220.4C124.6 -213.1 146.8 -212.2 159 -199.4C171.2 -186.6 173.6 -161.9 181.4 -144.6C189.2 -127.4 202.4 -117.5 216.2 -104.1C230 -90.8 244.4 -74 245.7 -56.1C247 -38.1 235.1 -19.1 223.3 0L0 0Z" fill="#7f56f7"></path><path d="M0 -174C14.5 -179.8 29 -185.5 41.8 -183.3C54.6 -181 65.8 -170.8 79.6 -165.3C93.5 -159.8 110.1 -159.1 119.2 -149.5C128.4 -139.9 130.2 -121.4 136 -108.5C141.9 -95.5 151.8 -88.1 162.2 -78.1C172.5 -68.1 183.3 -55.5 184.3 -42.1C185.2 -28.6 176.4 -14.3 167.5 0L0 0Z" fill="#7540fb"></path><path d="M0 -116C9.7 -119.8 19.3 -123.7 27.9 -122.2C36.4 -120.7 43.8 -113.9 53.1 -110.2C62.3 -106.6 73.4 -106.1 79.5 -99.7C85.6 -93.3 86.8 -81 90.7 -72.3C94.6 -63.7 101.2 -58.7 108.1 -52.1C115 -45.4 122.2 -37 122.8 -28C123.5 -19.1 117.6 -9.5 111.7 0L0 0Z" fill="#6b21fe"></path><path d="M0 -58C4.8 -59.9 9.7 -61.8 13.9 -61.1C18.2 -60.3 21.9 -56.9 26.5 -55.1C31.2 -53.3 36.7 -53 39.7 -49.8C42.8 -46.6 43.4 -40.5 45.3 -36.2C47.3 -31.8 50.6 -29.4 54.1 -26C57.5 -22.7 61.1 -18.5 61.4 -14C61.7 -9.5 58.8 -4.8 55.8 0L0 0Z" fill="#6600ff"></path></g></svg>