<svg id="visual" viewBox="0 0 900 450" width="900" height="450" xmlns="http://www.w3.org/2000/svg" xmlns:xlink="http://www.w3.org/1999/xlink" version="1.1"><rect x="0" y="0" width="900" height="450" fill="#d22990"></rect><path d="M0 143L10 135.2C20 127.3 40 111.7 60 104.2C80 96.7 100 97.3 120 104.5C140 111.7 160 125.3 180 131.8C200 138.3 220 137.7 240 130.5C260 123.3 280 109.7 300 109C320 108.3 340 120.7 360 128.7C380 136.7 400 140.3 420 143.5C440 146.7 460 149.3 480 148.7C500 148 520 144 540 146.7C560 149.3 580 158.7 600 153.5C620 148.3 640 128.7 660 127.2C680 125.7 700 142.3 720 142.3C740 142.3 760 125.7 780 121.8C800 118 820 127 840 126C860 125 880 114 890 108.5L900 103L900 0L890 0C880 0 860 0 840 0C820 0 800 0 780 0C760 0 740 0 720 0C700 0 680 0 660 0C640 0 620 0 600 0C580 0 560 0 540 0C520 0 500 0 480 0C460 0 440 0 420 0C400 0 380 0 360 0C340 0 320 0 300 0C280 0 260 0 240 0C220 0 200 0 180 0C160 0 140 0 120 0C100 0 80 0 60 0C40 0 20 0 10 0L0 0Z" fill="#fa7268"></path><path d="M0 123L10 116.8C20 110.7 40 98.3 60 97.3C80 96.3 100 106.7 120 108.3C140 110 160 103 180 101.3C200 99.7 220 103.3 240 104C260 104.7 280 102.3 300 103C320 103.7 340 107.3 360 105.2C380 103 400 95 420 91.2C440 87.3 460 87.7 480 96.8C500 106 520 124 540 132.3C560 140.7 580 139.3 600 136.5C620 133.7 640 129.3 660 119C680 108.7 700 92.3 720 86.8C740 81.3 760 86.7 780 89.8C800 93 820 94 840 98.7C860 103.3 880 111.7 890 115.8L900 120L900 0L890 0C880 0 860 0 840 0C820 0 800 0 780 0C760 0 740 0 720 0C700 0 680 0 660 0C640 0 620 0 600 0C580 0 560 0 540 0C520 0 500 0 480 0C460 0 440 0 420 0C400 0 380 0 360 0C340 0 320 0 300 0C280 0 260 0 240 0C220 0 200 0 180 0C160 0 140 0 120 0C100 0 80 0 60 0C40 0 20 0 10 0L0 0Z" fill="#f36567"></path><path d="M0 124L10 120.5C20 117 40 110 60 108C80 106 100 109 120 103.5C140 98 160 84 180 78.8C200 73.7 220 77.3 240 86.2C260 95 280 109 300 114.3C320 119.7 340 116.3 360 116.2C380 116 400 119 420 120.7C440 122.3 460 122.7 480 113C500 103.3 520 83.7 540 75.3C560 67 580 70 600 79.2C620 88.3 640 103.7 660 103.8C680 104 700 89 720 86.3C740 83.7 760 93.3 780 93.7C800 94 820 85 840 78.8C860 72.7 880 69.3 890 67.7L900 66L900 0L890 0C880 0 860 0 840 0C820 0 800 0 780 0C760 0 740 0 720 0C700 0 680 0 660 0C640 0 620 0 600 0C580 0 560 0 540 0C520 0 500 0 480 0C460 0 440 0 420 0C400 0 380 0 360 0C340 0 320 0 300 0C280 0 260 0 240 0C220 0 200 0 180 0C160 0 140 0 120 0C100 0 80 0 60 0C40 0 20 0 10 0L0 0Z" fill="#eb5967"></path><path d="M0 52L10 56.2C20 60.3 40 68.7 60 72.3C80 76 100 75 120 79C140 83 160 92 180 90.3C200 88.7 220 76.3 240 75.8C260 75.3 280 86.7 300 85.8C320 85 340 72 360 69.8C380 67.7 400 76.3 420 79.5C440 82.7 460 80.3 480 81.8C500 83.3 520 88.7 540 91.3C560 94 580 94 600 92.2C620 90.3 640 86.7 660 87.5C680 88.3 700 93.7 720 92.8C740 92 760 85 780 80.7C800 76.3 820 74.7 840 76.5C860 78.3 880 83.7 890 86.3L900 89L900 0L890 0C880 0 860 0 840 0C820 0 800 0 780 0C760 0 740 0 720 0C700 0 680 0 660 0C640 0 620 0 600 0C580 0 560 0 540 0C520 0 500 0 480 0C460 0 440 0 420 0C400 0 380 0 360 0C340 0 320 0 300 0C280 0 260 0 240 0C220 0 200 0 180 0C160 0 140 0 120 0C100 0 80 0 60 0C40 0 20 0 10 0L0 0Z" fill="#e34c67"></path><path d="M0 36L10 38C20 40 40 44 60 45.3C80 46.7 100 45.3 120 51C140 56.7 160 69.3 180 67.5C200 65.7 220 49.3 240 43.5C260 37.7 280 42.3 300 49.7C320 57 340 67 360 66C380 65 400 53 420 49.5C440 46 460 51 480 52.5C500 54 520 52 540 51C560 50 580 50 600 48C620 46 640 42 660 46.7C680 51.3 700 64.7 720 64.5C740 64.3 760 50.7 780 48.7C800 46.7 820 56.3 840 64C860 71.7 880 77.3 890 80.2L900 83L900 0L890 0C880 0 860 0 840 0C820 0 800 0 780 0C760 0 740 0 720 0C700 0 680 0 660 0C640 0 620 0 600 0C580 0 560 0 540 0C520 0 500 0 480 0C460 0 440 0 420 0C400 0 380 0 360 0C340 0 320 0 300 0C280 0 260 0 240 0C220 0 200 0 180 0C160 0 140 0 120 0C100 0 80 0 60 0C40 0 20 0 10 0L0 0Z" fill="#da3f67"></path><path d="M0 20L10 20.7C20 21.3 40 22.7 60 24.2C80 25.7 100 27.3 120 30.5C140 33.7 160 38.3 180 37.8C200 37.3 220 31.7 240 33.3C260 35 280 44 300 49.2C320 54.3 340 55.7 360 51.7C380 47.7 400 38.3 420 38.5C440 38.7 460 48.3 480 53.7C500 59 520 60 540 60.5C560 61 580 61 600 59.8C620 58.7 640 56.3 660 52.7C680 49 700 44 720 40.2C740 36.3 760 33.7 780 34.7C800 35.7 820 40.3 840 39C860 37.7 880 30.3 890 26.7L900 23L900 0L890 0C880 0 860 0 840 0C820 0 800 0 780 0C760 0 740 0 720 0C700 0 680 0 660 0C640 0 620 0 600 0C580 0 560 0 540 0C520 0 500 0 480 0C460 0 440 0 420 0C400 0 380 0 360 0C340 0 320 0 300 0C280 0 260 0 240 0C220 0 200 0 180 0C160 0 140 0 120 0C100 0 80 0 60 0C40 0 20 0 10 0L0 0Z" fill="#d03267"></path><path d="M0 34L10 32.3C20 30.7 40 27.3 60 24.5C80 21.7 100 19.3 120 19C140 18.7 160 20.3 180 21C200 21.7 220 21.3 240 23C260 24.7 280 28.3 300 29.7C320 31 340 30 360 29C380 28 400 27 420 27C440 27 460 28 480 29.2C500 30.3 520 31.7 540 29.5C560 27.3 580 21.7 600 21.3C620 21 640 26 660 27.7C680 29.3 700 27.7 720 23.5C740 19.3 760 12.7 780 9.3C800 6 820 6 840 9.8C860 13.7 880 21.3 890 25.2L900 29L900 0L890 0C880 0 860 0 840 0C820 0 800 0 780 0C760 0 740 0 720 0C700 0 680 0 660 0C640 0 620 0 600 0C580 0 560 0 540 0C520 0 500 0 480 0C460 0 440 0 420 0C400 0 380 0 360 0C340 0 320 0 300 0C280 0 260 0 240 0C220 0 200 0 180 0C160 0 140 0 120 0C100 0 80 0 60 0C40 0 20 0 10 0L0 0Z" fill="#c62368"></path></svg>