<svg id="visual" viewBox="0 0 900 450" width="900" height="450" xmlns="http://www.w3.org/2000/svg" xmlns:xlink="http://www.w3.org/1999/xlink" version="1.1"><path d="M0 91L90 154L180 96L270 159L360 132L450 118L540 123L630 114L720 150L810 42L900 91L900 0L810 0L720 0L630 0L540 0L450 0L360 0L270 0L180 0L90 0L0 0Z" fill="#00cc8e"></path><path d="M0 159L90 226L180 190L270 190L360 204L450 195L540 181L630 168L720 204L810 123L900 127L900 89L810 40L720 148L630 112L540 121L450 116L360 130L270 157L180 94L90 152L0 89Z" fill="#00c18c"></path><path d="M0 231L90 262L180 222L270 231L360 226L450 271L540 226L630 222L720 226L810 186L900 163L900 125L810 121L720 202L630 166L540 179L450 193L360 202L270 188L180 188L90 224L0 157Z" fill="#00b789"></path><path d="M0 316L90 339L180 316L270 307L360 289L450 325L540 316L630 285L720 294L810 307L900 303L900 161L810 184L720 224L630 220L540 224L450 269L360 224L270 229L180 220L90 260L0 229Z" fill="#00ac86"></path><path d="M0 348L90 361L180 352L270 357L360 334L450 348L540 370L630 334L720 343L810 357L900 343L900 301L810 305L720 292L630 283L540 314L450 323L360 287L270 305L180 314L90 337L0 314Z" fill="#00a282"></path><path d="M0 397L90 393L180 379L270 379L360 393L450 397L540 397L630 375L720 397L810 379L900 397L900 341L810 355L720 341L630 332L540 368L450 346L360 332L270 355L180 350L90 359L0 346Z" fill="#00977e"></path><path d="M0 420L90 433L180 415L270 424L360 415L450 433L540 415L630 420L720 433L810 420L900 420L900 395L810 377L720 395L630 373L540 395L450 395L360 391L270 377L180 377L90 391L0 395Z" fill="#008d79"></path><path d="M0 451L90 451L180 451L270 451L360 451L450 451L540 451L630 451L720 451L810 451L900 451L900 418L810 418L720 431L630 418L540 413L450 431L360 413L270 422L180 413L90 431L0 418Z" fill="#038373"></path></svg>