<svg id="visual" viewBox="0 0 900 450" width="900" height="450" xmlns="http://www.w3.org/2000/svg" xmlns:xlink="http://www.w3.org/1999/xlink" version="1.1"><path d="M0 60L13.7 62.2C27.3 64.3 54.7 68.7 82 69.3C109.3 70 136.7 67 163.8 63.3C191 59.7 218 55.3 245.2 55.3C272.3 55.3 299.7 59.7 327 59.7C354.3 59.7 381.7 55.3 409 50.8C436.3 46.3 463.7 41.7 491 45.3C518.3 49 545.7 61 573 67.8C600.3 74.7 627.7 76.3 654.8 74.2C682 72 709 66 736.2 61.5C763.3 57 790.7 54 818 55.5C845.3 57 872.7 63 886.3 66L900 69L900 0L886.3 0C872.7 0 845.3 0 818 0C790.7 0 763.3 0 736.2 0C709 0 682 0 654.8 0C627.7 0 600.3 0 573 0C545.7 0 518.3 0 491 0C463.7 0 436.3 0 409 0C381.7 0 354.3 0 327 0C299.7 0 272.3 0 245.2 0C218 0 191 0 163.8 0C136.7 0 109.3 0 82 0C54.7 0 27.3 0 13.7 0L0 0Z" fill="#004cbb"></path><path d="M0 123L13.7 135.7C27.3 148.3 54.7 173.7 82 180.3C109.3 187 136.7 175 163.8 167.5C191 160 218 157 245.2 151.8C272.3 146.7 299.7 139.3 327 137.8C354.3 136.3 381.7 140.7 409 154.2C436.3 167.7 463.7 190.3 491 202.3C518.3 214.3 545.7 215.7 573 206.7C600.3 197.7 627.7 178.3 654.8 175.3C682 172.3 709 185.7 736.2 196.8C763.3 208 790.7 217 818 222.3C845.3 227.7 872.7 229.3 886.3 230.2L900 231L900 67L886.3 64C872.7 61 845.3 55 818 53.5C790.7 52 763.3 55 736.2 59.5C709 64 682 70 654.8 72.2C627.7 74.3 600.3 72.7 573 65.8C545.7 59 518.3 47 491 43.3C463.7 39.7 436.3 44.3 409 48.8C381.7 53.3 354.3 57.7 327 57.7C299.7 57.7 272.3 53.3 245.2 53.3C218 53.3 191 57.7 163.8 61.3C136.7 65 109.3 68 82 67.3C54.7 66.7 27.3 62.3 13.7 60.2L0 58Z" fill="#0059dd"></path><path d="M0 190L13.7 206.5C27.3 223 54.7 256 82 257.5C109.3 259 136.7 229 163.8 214.8C191 200.7 218 202.3 245.2 205.3C272.3 208.3 299.7 212.7 327 218.7C354.3 224.7 381.7 232.3 409 236.8C436.3 241.3 463.7 242.7 491 246.3C518.3 250 545.7 256 573 256C600.3 256 627.7 250 654.8 250.8C682 251.7 709 259.3 736.2 262.3C763.3 265.3 790.7 263.7 818 268.2C845.3 272.7 872.7 283.3 886.3 288.7L900 294L900 229L886.3 228.2C872.7 227.3 845.3 225.7 818 220.3C790.7 215 763.3 206 736.2 194.8C709 183.7 682 170.3 654.8 173.3C627.7 176.3 600.3 195.7 573 204.7C545.7 213.7 518.3 212.3 491 200.3C463.7 188.3 436.3 165.7 409 152.2C381.7 138.7 354.3 134.3 327 135.8C299.7 137.3 272.3 144.7 245.2 149.8C218 155 191 158 163.8 165.5C136.7 173 109.3 185 82 178.3C54.7 171.7 27.3 146.3 13.7 133.7L0 121Z" fill="#0066ff"></path><path d="M0 303L13.7 318C27.3 333 54.7 363 82 361.5C109.3 360 136.7 327 163.8 302.2C191 277.3 218 260.7 245.2 262.2C272.3 263.7 299.7 283.3 327 294.7C354.3 306 381.7 309 409 316.5C436.3 324 463.7 336 491 339.7C518.3 343.3 545.7 338.7 573 328.2C600.3 317.7 627.7 301.3 654.8 299.8C682 298.3 709 311.7 736.2 315.3C763.3 319 790.7 313 818 320.5C845.3 328 872.7 349 886.3 359.5L900 370L900 292L886.3 286.7C872.7 281.3 845.3 270.7 818 266.2C790.7 261.7 763.3 263.3 736.2 260.3C709 257.3 682 249.7 654.8 248.8C627.7 248 600.3 254 573 254C545.7 254 518.3 248 491 244.3C463.7 240.7 436.3 239.3 409 234.8C381.7 230.3 354.3 222.7 327 216.7C299.7 210.7 272.3 206.3 245.2 203.3C218 200.3 191 198.7 163.8 212.8C136.7 227 109.3 257 82 255.5C54.7 254 27.3 221 13.7 204.5L0 188Z" fill="#3c80ff"></path><path d="M0 451L13.7 451C27.3 451 54.7 451 82 451C109.3 451 136.7 451 163.8 451C191 451 218 451 245.2 451C272.3 451 299.7 451 327 451C354.3 451 381.7 451 409 451C436.3 451 463.7 451 491 451C518.3 451 545.7 451 573 451C600.3 451 627.7 451 654.8 451C682 451 709 451 736.2 451C763.3 451 790.7 451 818 451C845.3 451 872.7 451 886.3 451L900 451L900 368L886.3 357.5C872.7 347 845.3 326 818 318.5C790.7 311 763.3 317 736.2 313.3C709 309.7 682 296.3 654.8 297.8C627.7 299.3 600.3 315.7 573 326.2C545.7 336.7 518.3 341.3 491 337.7C463.7 334 436.3 322 409 314.5C381.7 307 354.3 304 327 292.7C299.7 281.3 272.3 261.7 245.2 260.2C218 258.7 191 275.3 163.8 300.2C136.7 325 109.3 358 82 359.5C54.7 361 27.3 331 13.7 316L0 301Z" fill="#6198ff"></path></svg>