<svg id="visual" viewBox="0 0 900 600" width="900" height="600" xmlns="http://www.w3.org/2000/svg" xmlns:xlink="http://www.w3.org/1999/xlink" version="1.1"><g stroke-width="1" stroke-linejoin="bevel"><path d="M460.9 295L441.1 216L418.1 261Z" fill="#274785" stroke="#274785"></path><path d="M460.9 295L514.9 260L441.1 216Z" fill="#305288" stroke="#305288"></path><path d="M514.9 260L483.9 160L441.1 216Z" fill="#355789" stroke="#355789"></path><path d="M575.7 292L561.7 249L514.9 260Z" fill="#212979" stroke="#212979"></path><path d="M514.9 260L532.7 149L483.9 160Z" fill="#305288" stroke="#305288"></path><path d="M372.1 359L510.9 349L460.9 295Z" fill="#251b72" stroke="#251b72"></path><path d="M460.9 295L510.9 349L514.9 260Z" fill="#212979" stroke="#212979"></path><path d="M510.9 349L540.7 342L514.9 260Z" fill="#21307c" stroke="#21307c"></path><path d="M540.7 342L575.7 292L514.9 260Z" fill="#251b72" stroke="#251b72"></path><path d="M483.9 160L443.1 127L441.1 216Z" fill="#232376" stroke="#232376"></path><path d="M441.1 216L346.3 186L418.1 261Z" fill="#223c81" stroke="#223c81"></path><path d="M561.7 249L532.7 149L514.9 260Z" fill="#21367f" stroke="#21367f"></path><path d="M483.9 160L481.9 66L443.1 127Z" fill="#355789" stroke="#355789"></path><path d="M569.7 103L532.7 149L643.5 169Z" fill="#2b4c86" stroke="#2b4c86"></path><path d="M443.1 127L346.3 186L441.1 216Z" fill="#244283" stroke="#244283"></path><path d="M333.3 326L372.1 359L418.1 261Z" fill="#244283" stroke="#244283"></path><path d="M418.1 261L372.1 359L460.9 295Z" fill="#251b72" stroke="#251b72"></path><path d="M346.3 186L331.3 200L418.1 261Z" fill="#232376" stroke="#232376"></path><path d="M331.3 200L333.3 326L418.1 261Z" fill="#21367f" stroke="#21367f"></path><path d="M443.1 127L374.1 111L346.3 186Z" fill="#251b72" stroke="#251b72"></path><path d="M346.3 186L255.5 180L331.3 200Z" fill="#232376" stroke="#232376"></path><path d="M417.1 455L527.9 413L510.9 349Z" fill="#232376" stroke="#232376"></path><path d="M510.9 349L527.9 413L540.7 342Z" fill="#21367f" stroke="#21367f"></path><path d="M638.5 366L635.5 310L575.7 292Z" fill="#223c81" stroke="#223c81"></path><path d="M638.5 366L575.7 292L540.7 342Z" fill="#355789" stroke="#355789"></path><path d="M575.7 292L635.5 310L561.7 249Z" fill="#274785" stroke="#274785"></path><path d="M643.5 169L532.7 149L561.7 249Z" fill="#212979" stroke="#212979"></path><path d="M532.7 149L481.9 66L483.9 160Z" fill="#274785" stroke="#274785"></path><path d="M443.1 127L362.3 60L374.1 111Z" fill="#212979" stroke="#212979"></path><path d="M569.7 103L481.9 66L532.7 149Z" fill="#244283" stroke="#244283"></path><path d="M234.5 216L268.5 281L331.3 200Z" fill="#21367f" stroke="#21367f"></path><path d="M331.3 200L268.5 281L333.3 326Z" fill="#223c81" stroke="#223c81"></path><path d="M328.3 431L417.1 455L372.1 359Z" fill="#21307c" stroke="#21307c"></path><path d="M660.5 206L643.5 169L561.7 249Z" fill="#274785" stroke="#274785"></path><path d="M294.3 379L372.1 359L333.3 326Z" fill="#223c81" stroke="#223c81"></path><path d="M372.1 359L417.1 455L510.9 349Z" fill="#355789" stroke="#355789"></path><path d="M268.5 281L294.3 379L333.3 326Z" fill="#232376" stroke="#232376"></path><path d="M635.5 310L660.5 206L561.7 249Z" fill="#21307c" stroke="#21307c"></path><path d="M527.9 413L638.5 366L540.7 342Z" fill="#212979" stroke="#212979"></path><path d="M736.4 307L715.4 196L660.5 206Z" fill="#305288" stroke="#305288"></path><path d="M481.9 66L362.3 60L443.1 127Z" fill="#274785" stroke="#274785"></path><path d="M374.1 111L255.5 180L346.3 186Z" fill="#2b4c86" stroke="#2b4c86"></path><path d="M362.3 60L255.5 180L374.1 111Z" fill="#232376" stroke="#232376"></path><path d="M294.3 379L328.3 431L372.1 359Z" fill="#274785" stroke="#274785"></path><path d="M255.5 180L234.5 216L331.3 200Z" fill="#305288" stroke="#305288"></path><path d="M229.5 388L282.5 413L294.3 379Z" fill="#355789" stroke="#355789"></path><path d="M750.4 94L630.5 96L643.5 169Z" fill="#244283" stroke="#244283"></path><path d="M643.5 169L630.5 96L569.7 103Z" fill="#232376" stroke="#232376"></path><path d="M534.7 0L454.9 0L481.9 66Z" fill="#2b4c86" stroke="#2b4c86"></path><path d="M229.5 388L294.3 379L268.5 281Z" fill="#21367f" stroke="#21367f"></path><path d="M294.3 379L282.5 413L328.3 431Z" fill="#251b72" stroke="#251b72"></path><path d="M566.7 534L599.7 461L527.9 413Z" fill="#21367f" stroke="#21367f"></path><path d="M527.9 413L599.7 461L638.5 366Z" fill="#212979" stroke="#212979"></path><path d="M328.3 431L381.1 493L417.1 455Z" fill="#21367f" stroke="#21367f"></path><path d="M417.1 455L454.9 514L527.9 413Z" fill="#355789" stroke="#355789"></path><path d="M289.3 518L381.1 493L328.3 431Z" fill="#244283" stroke="#244283"></path><path d="M534.7 0L481.9 66L569.7 103Z" fill="#251b72" stroke="#251b72"></path><path d="M481.9 66L396.1 0L362.3 60Z" fill="#274785" stroke="#274785"></path><path d="M381.1 493L454.9 514L417.1 455Z" fill="#21307c" stroke="#21307c"></path><path d="M454.9 0L396.1 0L481.9 66Z" fill="#274785" stroke="#274785"></path><path d="M362.3 60L206.5 96L255.5 180Z" fill="#355789" stroke="#355789"></path><path d="M660.5 206L715.4 196L643.5 169Z" fill="#274785" stroke="#274785"></path><path d="M736.4 307L660.5 206L635.5 310Z" fill="#355789" stroke="#355789"></path><path d="M736.4 307L635.5 310L638.5 366Z" fill="#21307c" stroke="#21307c"></path><path d="M624.5 0L534.7 0L569.7 103Z" fill="#355789" stroke="#355789"></path><path d="M197.6 337L229.5 388L268.5 281Z" fill="#232376" stroke="#232376"></path><path d="M282.5 413L289.3 518L328.3 431Z" fill="#251b72" stroke="#251b72"></path><path d="M171.6 228L197.6 337L268.5 281Z" fill="#212979" stroke="#212979"></path><path d="M396.1 0L335.3 0L362.3 60Z" fill="#251b72" stroke="#251b72"></path><path d="M133.6 155L171.6 228L234.5 216Z" fill="#274785" stroke="#274785"></path><path d="M773.4 343L736.4 307L638.5 366Z" fill="#212979" stroke="#212979"></path><path d="M133.6 155L234.5 216L255.5 180Z" fill="#305288" stroke="#305288"></path><path d="M234.5 216L171.6 228L268.5 281Z" fill="#2b4c86" stroke="#2b4c86"></path><path d="M278.5 0L206.5 96L362.3 60Z" fill="#232376" stroke="#232376"></path><path d="M715.4 196L750.4 94L643.5 169Z" fill="#274785" stroke="#274785"></path><path d="M630.5 96L624.5 0L569.7 103Z" fill="#223c81" stroke="#223c81"></path><path d="M782.2 200L749.4 187L715.4 196Z" fill="#21307c" stroke="#21307c"></path><path d="M454.9 514L566.7 534L527.9 413Z" fill="#212979" stroke="#212979"></path><path d="M599.7 461L690.5 456L638.5 366Z" fill="#251b72" stroke="#251b72"></path><path d="M750.4 94L624.5 0L630.5 96Z" fill="#232376" stroke="#232376"></path><path d="M653.5 531L690.5 456L599.7 461Z" fill="#305288" stroke="#305288"></path><path d="M335.3 0L278.5 0L362.3 60Z" fill="#21367f" stroke="#21367f"></path><path d="M216.5 560L289.3 518L185.6 548Z" fill="#305288" stroke="#305288"></path><path d="M229.5 388L289.3 518L282.5 413Z" fill="#274785" stroke="#274785"></path><path d="M387.1 600L467.9 600L454.9 514Z" fill="#21367f" stroke="#21367f"></path><path d="M454.9 514L467.9 600L566.7 534Z" fill="#251b72" stroke="#251b72"></path><path d="M119.8 379L160.6 383L101.8 326Z" fill="#305288" stroke="#305288"></path><path d="M197.6 337L160.6 383L229.5 388Z" fill="#274785" stroke="#274785"></path><path d="M731.4 449L773.4 343L638.5 366Z" fill="#251b72" stroke="#251b72"></path><path d="M736.4 307L782.2 200L715.4 196Z" fill="#355789" stroke="#355789"></path><path d="M833.2 310L782.2 200L736.4 307Z" fill="#274785" stroke="#274785"></path><path d="M749.4 187L750.4 94L715.4 196Z" fill="#2b4c86" stroke="#2b4c86"></path><path d="M828.2 158L750.4 94L749.4 187Z" fill="#2b4c86" stroke="#2b4c86"></path><path d="M731.4 449L779.2 347L773.4 343Z" fill="#305288" stroke="#305288"></path><path d="M773.4 343L833.2 310L736.4 307Z" fill="#305288" stroke="#305288"></path><path d="M713.4 530L731.4 449L690.5 456Z" fill="#21367f" stroke="#21367f"></path><path d="M690.5 456L731.4 449L638.5 366Z" fill="#232376" stroke="#232376"></path><path d="M566.7 534L653.5 531L599.7 461Z" fill="#232376" stroke="#232376"></path><path d="M206.5 96L133.6 155L255.5 180Z" fill="#305288" stroke="#305288"></path><path d="M101.8 326L160.6 383L197.6 337Z" fill="#251b72" stroke="#251b72"></path><path d="M130.6 110L133.6 155L206.5 96Z" fill="#355789" stroke="#355789"></path><path d="M387.1 600L454.9 514L381.1 493Z" fill="#274785" stroke="#274785"></path><path d="M566.7 534L569.7 600L653.5 531Z" fill="#21307c" stroke="#21307c"></path><path d="M326.3 600L387.1 600L381.1 493Z" fill="#21367f" stroke="#21367f"></path><path d="M114.8 53L130.6 110L206.5 96Z" fill="#244283" stroke="#244283"></path><path d="M101.8 326L197.6 337L171.6 228Z" fill="#251b72" stroke="#251b72"></path><path d="M160.6 383L137.6 481L229.5 388Z" fill="#21307c" stroke="#21307c"></path><path d="M289.3 518L326.3 600L381.1 493Z" fill="#232376" stroke="#232376"></path><path d="M101.8 326L171.6 228L77.8 232Z" fill="#251b72" stroke="#251b72"></path><path d="M467.9 600L569.7 600L566.7 534Z" fill="#251b72" stroke="#251b72"></path><path d="M77.8 232L171.6 228L133.6 155Z" fill="#274785" stroke="#274785"></path><path d="M216.5 560L326.3 600L289.3 518Z" fill="#305288" stroke="#305288"></path><path d="M653.5 531L713.4 530L690.5 456Z" fill="#244283" stroke="#244283"></path><path d="M855.2 416L833.2 310L779.2 347Z" fill="#21307c" stroke="#21307c"></path><path d="M678.5 600L713.4 530L653.5 531Z" fill="#251b72" stroke="#251b72"></path><path d="M779.2 347L833.2 310L773.4 343Z" fill="#232376" stroke="#232376"></path><path d="M782.2 200L828.2 158L749.4 187Z" fill="#223c81" stroke="#223c81"></path><path d="M855.2 416L779.2 347L731.4 449Z" fill="#212979" stroke="#212979"></path><path d="M900 210L828.2 158L782.2 200Z" fill="#251b72" stroke="#251b72"></path><path d="M278.5 0L173.6 0L206.5 96Z" fill="#244283" stroke="#244283"></path><path d="M45.8 148L133.6 155L130.6 110Z" fill="#355789" stroke="#355789"></path><path d="M45.8 148L77.8 232L133.6 155Z" fill="#251b72" stroke="#251b72"></path><path d="M828.2 158L796.2 63L750.4 94Z" fill="#355789" stroke="#355789"></path><path d="M750.4 94L759.4 0L624.5 0Z" fill="#251b72" stroke="#251b72"></path><path d="M0 383L110.8 427L119.8 379Z" fill="#232376" stroke="#232376"></path><path d="M119.8 379L110.8 427L160.6 383Z" fill="#232376" stroke="#232376"></path><path d="M0 383L119.8 379L101.8 326Z" fill="#305288" stroke="#305288"></path><path d="M137.6 481L289.3 518L229.5 388Z" fill="#212979" stroke="#212979"></path><path d="M796.2 63L759.4 0L750.4 94Z" fill="#355789" stroke="#355789"></path><path d="M110.8 427L137.6 481L160.6 383Z" fill="#2b4c86" stroke="#2b4c86"></path><path d="M173.6 0L114.8 53L206.5 96Z" fill="#232376" stroke="#232376"></path><path d="M137.6 481L185.6 548L289.3 518Z" fill="#251b72" stroke="#251b72"></path><path d="M569.7 600L678.5 600L653.5 531Z" fill="#305288" stroke="#305288"></path><path d="M798.2 548L855.2 416L731.4 449Z" fill="#274785" stroke="#274785"></path><path d="M164.6 600L215.5 600L185.6 548Z" fill="#21367f" stroke="#21367f"></path><path d="M185.6 548L215.5 600L216.5 560Z" fill="#212979" stroke="#212979"></path><path d="M216.5 560L215.5 600L326.3 600Z" fill="#21307c" stroke="#21307c"></path><path d="M114.8 53L45.8 148L130.6 110Z" fill="#274785" stroke="#274785"></path><path d="M77.8 232L0 300L101.8 326Z" fill="#223c81" stroke="#223c81"></path><path d="M173.6 0L115.8 0L114.8 53Z" fill="#244283" stroke="#244283"></path><path d="M114.8 53L0 68L45.8 148Z" fill="#274785" stroke="#274785"></path><path d="M798.2 548L731.4 449L713.4 530Z" fill="#251b72" stroke="#251b72"></path><path d="M833.2 310L900 210L782.2 200Z" fill="#21307c" stroke="#21307c"></path><path d="M900 0L804.2 0L796.2 63Z" fill="#251b72" stroke="#251b72"></path><path d="M796.2 63L804.2 0L759.4 0Z" fill="#2b4c86" stroke="#2b4c86"></path><path d="M900 340L900 287L833.2 310Z" fill="#244283" stroke="#244283"></path><path d="M828.2 158L900 102L796.2 63Z" fill="#355789" stroke="#355789"></path><path d="M900 287L900 210L833.2 310Z" fill="#212979" stroke="#212979"></path><path d="M774.4 600L798.2 548L713.4 530Z" fill="#232376" stroke="#232376"></path><path d="M855.2 416L900 340L833.2 310Z" fill="#21367f" stroke="#21367f"></path><path d="M900 425L900 340L855.2 416Z" fill="#274785" stroke="#274785"></path><path d="M97.8 562L185.6 548L137.6 481Z" fill="#2b4c86" stroke="#2b4c86"></path><path d="M97.8 562L164.6 600L185.6 548Z" fill="#274785" stroke="#274785"></path><path d="M900 210L900 141L828.2 158Z" fill="#232376" stroke="#232376"></path><path d="M0 177L0 245L77.8 232Z" fill="#2b4c86" stroke="#2b4c86"></path><path d="M0 473L97.8 562L137.6 481Z" fill="#212979" stroke="#212979"></path><path d="M0 245L0 300L77.8 232Z" fill="#232376" stroke="#232376"></path><path d="M45.8 148L0 177L77.8 232Z" fill="#355789" stroke="#355789"></path><path d="M0 68L0 177L45.8 148Z" fill="#355789" stroke="#355789"></path><path d="M900 141L900 102L828.2 158Z" fill="#212979" stroke="#212979"></path><path d="M678.5 600L774.4 600L713.4 530Z" fill="#244283" stroke="#244283"></path><path d="M900 544L900 425L855.2 416Z" fill="#21307c" stroke="#21307c"></path><path d="M900 544L855.2 416L798.2 548Z" fill="#305288" stroke="#305288"></path><path d="M0 473L137.6 481L110.8 427Z" fill="#232376" stroke="#232376"></path><path d="M0 300L0 383L101.8 326Z" fill="#355789" stroke="#355789"></path><path d="M774.4 600L792.2 600L798.2 548Z" fill="#21307c" stroke="#21307c"></path><path d="M97.8 562L119.8 600L164.6 600Z" fill="#244283" stroke="#244283"></path><path d="M0 0L0 68L114.8 53Z" fill="#355789" stroke="#355789"></path><path d="M900 102L900 0L796.2 63Z" fill="#21367f" stroke="#21367f"></path><path d="M0 383L0 473L110.8 427Z" fill="#223c81" stroke="#223c81"></path><path d="M97.8 562L0 600L119.8 600Z" fill="#2b4c86" stroke="#2b4c86"></path><path d="M115.8 0L0 0L114.8 53Z" fill="#274785" stroke="#274785"></path><path d="M900 600L900 544L798.2 548Z" fill="#251b72" stroke="#251b72"></path><path d="M0 473L0 557L97.8 562Z" fill="#223c81" stroke="#223c81"></path><path d="M792.2 600L900 600L798.2 548Z" fill="#21307c" stroke="#21307c"></path><path d="M0 557L0 600L97.8 562Z" fill="#21367f" stroke="#21367f"></path></g></svg>