<svg id="visual" viewBox="0 0 900 600" width="900" height="600" xmlns="http://www.w3.org/2000/svg" xmlns:xlink="http://www.w3.org/1999/xlink" version="1.1"><path d="M0 139L53 139L53 187L106 187L106 139L159 139L159 103L212 103L212 121L265 121L265 187L318 187L318 55L371 55L371 193L424 193L424 85L476 85L476 97L529 97L529 49L582 49L582 61L635 61L635 61L688 61L688 217L741 217L741 265L794 265L794 55L847 55L847 133L900 133L900 181L900 0L900 0L847 0L847 0L794 0L794 0L741 0L741 0L688 0L688 0L635 0L635 0L582 0L582 0L529 0L529 0L476 0L476 0L424 0L424 0L371 0L371 0L318 0L318 0L265 0L265 0L212 0L212 0L159 0L159 0L106 0L106 0L53 0L53 0L0 0Z" fill="#d8196c"></path><path d="M0 283L53 283L53 313L106 313L106 259L159 259L159 289L212 289L212 217L265 217L265 289L318 289L318 217L371 217L371 265L424 265L424 247L476 247L476 265L529 265L529 205L582 205L582 337L635 337L635 259L688 259L688 271L741 271L741 307L794 307L794 199L847 199L847 277L900 277L900 217L900 179L900 131L847 131L847 53L794 53L794 263L741 263L741 215L688 215L688 59L635 59L635 59L582 59L582 47L529 47L529 95L476 95L476 83L424 83L424 191L371 191L371 53L318 53L318 185L265 185L265 119L212 119L212 101L159 101L159 137L106 137L106 185L53 185L53 137L0 137Z" fill="#c7215d"></path><path d="M0 337L53 337L53 331L106 331L106 307L159 307L159 355L212 355L212 265L265 265L265 349L318 349L318 277L371 277L371 295L424 295L424 319L476 319L476 313L529 313L529 271L582 271L582 403L635 403L635 319L688 319L688 313L741 313L741 343L794 343L794 265L847 265L847 331L900 331L900 289L900 215L900 275L847 275L847 197L794 197L794 305L741 305L741 269L688 269L688 257L635 257L635 335L582 335L582 203L529 203L529 263L476 263L476 245L424 245L424 263L371 263L371 215L318 215L318 287L265 287L265 215L212 215L212 287L159 287L159 257L106 257L106 311L53 311L53 281L0 281Z" fill="#b52650"></path><path d="M0 439L53 439L53 361L106 361L106 355L159 355L159 385L212 385L212 361L265 361L265 433L318 433L318 361L371 361L371 337L424 337L424 355L476 355L476 391L529 391L529 385L582 385L582 475L635 475L635 415L688 415L688 385L741 385L741 367L794 367L794 379L847 379L847 445L900 445L900 403L900 287L900 329L847 329L847 263L794 263L794 341L741 341L741 311L688 311L688 317L635 317L635 401L582 401L582 269L529 269L529 311L476 311L476 317L424 317L424 293L371 293L371 275L318 275L318 347L265 347L265 263L212 263L212 353L159 353L159 305L106 305L106 329L53 329L53 335L0 335Z" fill="#a42a45"></path><path d="M0 481L53 481L53 475L106 475L106 451L159 451L159 469L212 469L212 451L265 451L265 469L318 469L318 451L371 451L371 439L424 439L424 439L476 439L476 445L529 445L529 475L582 475L582 499L635 499L635 445L688 445L688 511L741 511L741 409L794 409L794 469L847 469L847 493L900 493L900 451L900 401L900 443L847 443L847 377L794 377L794 365L741 365L741 383L688 383L688 413L635 413L635 473L582 473L582 383L529 383L529 389L476 389L476 353L424 353L424 335L371 335L371 359L318 359L318 431L265 431L265 359L212 359L212 383L159 383L159 353L106 353L106 359L53 359L53 437L0 437Z" fill="#922c3b"></path><path d="M0 499L53 499L53 511L106 511L106 517L159 517L159 511L212 511L212 517L265 517L265 481L318 481L318 511L371 511L371 505L424 505L424 481L476 481L476 499L529 499L529 487L582 487L582 565L635 565L635 487L688 487L688 529L741 529L741 469L794 469L794 505L847 505L847 523L900 523L900 499L900 449L900 491L847 491L847 467L794 467L794 407L741 407L741 509L688 509L688 443L635 443L635 497L582 497L582 473L529 473L529 443L476 443L476 437L424 437L424 437L371 437L371 449L318 449L318 467L265 467L265 449L212 449L212 467L159 467L159 449L106 449L106 473L53 473L53 479L0 479Z" fill="#812d33"></path><path d="M0 553L53 553L53 529L106 529L106 535L159 535L159 541L212 541L212 583L265 583L265 559L318 559L318 553L371 553L371 541L424 541L424 535L476 535L476 523L529 523L529 565L582 565L582 589L635 589L635 559L688 559L688 547L741 547L741 541L794 541L794 523L847 523L847 541L900 541L900 559L900 497L900 521L847 521L847 503L794 503L794 467L741 467L741 527L688 527L688 485L635 485L635 563L582 563L582 485L529 485L529 497L476 497L476 479L424 479L424 503L371 503L371 509L318 509L318 479L265 479L265 515L212 515L212 509L159 509L159 515L106 515L106 509L53 509L53 497L0 497Z" fill="#702c2c"></path><path d="M0 601L53 601L53 601L106 601L106 601L159 601L159 601L212 601L212 601L265 601L265 601L318 601L318 601L371 601L371 601L424 601L424 601L476 601L476 601L529 601L529 601L582 601L582 601L635 601L635 601L688 601L688 601L741 601L741 601L794 601L794 601L847 601L847 601L900 601L900 601L900 557L900 539L847 539L847 521L794 521L794 539L741 539L741 545L688 545L688 557L635 557L635 587L582 587L582 563L529 563L529 521L476 521L476 533L424 533L424 539L371 539L371 551L318 551L318 557L265 557L265 581L212 581L212 539L159 539L159 533L106 533L106 527L53 527L53 551L0 551Z" fill="#5f2b27"></path></svg>