<svg id="visual" viewBox="0 0 900 600" width="900" height="600" xmlns="http://www.w3.org/2000/svg" xmlns:xlink="http://www.w3.org/1999/xlink" version="1.1"><rect x="0" y="0" width="900" height="600" fill="#20516a"></rect><path d="M0 95L12.5 104C25 113 50 131 75 156C100 181 125 213 150 215.3C175 217.7 200 190.3 225 174.2C250 158 275 153 300 143.2C325 133.3 350 118.7 375 120.8C400 123 425 142 450 154.7C475 167.3 500 173.7 525 160.2C550 146.7 575 113.3 600 108C625 102.7 650 125.3 675 143.7C700 162 725 176 750 187.5C775 199 800 208 825 183.8C850 159.7 875 102.3 887.5 73.7L900 45L900 0L887.5 0C875 0 850 0 825 0C800 0 775 0 750 0C725 0 700 0 675 0C650 0 625 0 600 0C575 0 550 0 525 0C500 0 475 0 450 0C425 0 400 0 375 0C350 0 325 0 300 0C275 0 250 0 225 0C200 0 175 0 150 0C125 0 100 0 75 0C50 0 25 0 12.5 0L0 0Z" fill="#4FACF7" stroke-linecap="round" stroke-linejoin="miter"></path></svg>