<svg id="visual" viewBox="0 0 900 450" width="900" height="450" xmlns="http://www.w3.org/2000/svg" xmlns:xlink="http://www.w3.org/1999/xlink" version="1.1"><rect width="900" height="450" fill="#931F1F"></rect><g><g transform="translate(140 59)"><path d="M81.4 -30C92.2 6.8 78.5 47.9 48.9 70C19.4 92.1 -25.9 95.1 -56.8 73.7C-87.7 52.3 -104.3 6.5 -92.4 -31.7C-80.5 -69.9 -40.3 -100.6 -2.5 -99.8C35.3 -99 70.6 -66.7 81.4 -30Z" fill="none" stroke="#F7760E" stroke-width="24"></path></g><g transform="translate(889 173)"><path d="M30.2 -8.5C34.9 4.8 31.7 22.1 20.6 30.7C9.5 39.3 -9.5 39.3 -22 30.3C-34.6 21.2 -40.5 3 -35.8 -10.3C-31 -23.7 -15.5 -32.3 -1.4 -31.8C12.7 -31.4 25.4 -21.9 30.2 -8.5Z" fill="none" stroke="#F7760E" stroke-width="24"></path></g><g transform="translate(471 319)"><path d="M38.5 -14.2C43.7 3.6 37.5 23.3 23.8 33.5C10.1 43.6 -11.1 44.1 -26.7 33.5C-42.3 23 -52.3 1.4 -46.9 -16.7C-41.5 -34.7 -20.8 -49.2 -2.1 -48.5C16.6 -47.8 33.2 -32 38.5 -14.2Z" stroke="#F7760E" fill="none" stroke-width="24"></path></g><g transform="translate(503 41)"><path d="M67 -20.6C76.4 7.2 66.5 42.5 43.4 59.1C20.4 75.6 -15.7 73.4 -39.3 55.9C-62.8 38.3 -73.9 5.3 -65.3 -21.4C-56.7 -48.1 -28.3 -68.6 0.2 -68.6C28.8 -68.7 57.6 -48.4 67 -20.6Z" stroke="#F7760E" fill="none" stroke-width="24"></path></g></g></svg>